<?xml version="1.0" standalone="no"?>
<!DOCTYPE svg PUBLIC "-//W3C//DTD SVG 20010904//EN"
 "http://www.w3.org/TR/2001/REC-SVG-20010904/DTD/svg10.dtd">
<svg version="1.0" xmlns="http://www.w3.org/2000/svg"
 width="320.000000pt" height="320.000000pt" viewBox="0 0 320.000000 320.000000"
 preserveAspectRatio="xMidYMid meet">
<metadata>
Created by potrace 1.11, written by Peter Selinger 2001-2013
</metadata>
<g transform="translate(0.000000,320.000000) scale(0.100000,-0.100000)"
fill="#000000" stroke="none">
<path d="M0 1600 l0 -1600 1600 0 1600 0 0 1600 0 1600 -1600 0 -1600 0 0
-1600z m930 1278 c20 -21 20 -32 20 -660 l0 -639 78 79 c94 96 196 160 322
204 91 31 102 32 245 33 130 0 160 -3 225 -23 276 -87 465 -276 552 -552 20
-64 23 -96 23 -220 0 -124 -3 -156 -23 -220 -87 -276 -276 -465 -552 -552 -64
-20 -96 -23 -220 -23 -124 0 -156 3 -220 23 -274 86 -457 268 -551 547 l-24
70 -3 957 -3 957 23 20 c29 28 81 27 108 -1z"/>
<path d="M1515 1741 c-270 -44 -472 -223 -541 -482 -22 -84 -22 -234 0 -318
78 -291 327 -484 626 -484 361 0 643 282 643 643 0 347 -257 619 -608 644 -38
2 -92 1 -120 -3z"/>
</g>
</svg>
